<svg width="197" height="197" viewBox="0 0 197 197" fill="none" xmlns="http://www.w3.org/2000/svg">
<path opacity="0.1" d="M197 98.5C197 152.9 152.9 197 98.5 197C44.1 197 0 152.9 0 98.5C0 44.1 44.1 0 98.5 0C152.9 0 197 44.1 197 98.5ZM29.7666 98.5C29.7666 136.46 60.5396 167.233 98.5 167.233C136.46 167.233 167.233 136.46 167.233 98.5C167.233 60.5396 136.46 29.7666 98.5 29.7666C60.5396 29.7666 29.7666 60.5396 29.7666 98.5Z" fill="#D9D9D9"/>
<path d="M98.5 14.775C98.5 6.615 105.152 -0.113419 113.22 1.10605C126.193 3.06681 138.695 7.60779 149.966 14.5149C165.455 24.0064 178.017 37.5963 186.264 53.7819C194.511 69.9676 198.122 88.1186 196.696 106.228C195.271 124.338 188.866 141.701 178.188 156.397C167.511 171.093 152.977 182.55 136.194 189.502C119.411 196.454 101.033 198.629 83.0912 195.787C65.1493 192.946 48.3426 185.198 34.5294 173.4C24.4772 164.815 16.2952 154.328 10.4216 142.596C6.76851 135.299 11.1122 126.894 18.8728 124.372C26.6334 121.851 34.8412 126.217 38.9554 133.264C42.8349 139.909 47.817 145.888 53.7206 150.93C63.3898 159.188 75.1545 164.612 87.7139 166.601C100.273 168.59 113.138 167.068 124.886 162.201C136.634 157.335 146.807 149.315 154.282 139.028C161.756 128.74 166.24 116.586 167.237 103.91C168.235 91.233 165.708 78.5273 159.935 67.1974C154.162 55.8674 145.368 46.3545 134.526 39.7105C127.907 35.6539 120.681 32.7633 113.162 31.127C105.189 29.3917 98.5 22.935 98.5 14.775Z" fill="url(#paint0_linear_201_83)"/>
<path d="M65.324 104L75.5748 83.7159V83.5469H63.6337V79.2727H80.9838V83.6072L70.7211 104H65.324ZM93.7308 104.543C91.6541 104.535 89.8672 104.024 88.37 103.01C86.8809 101.996 85.7339 100.527 84.929 98.603C84.1321 96.6792 83.7377 94.3651 83.7457 91.6605C83.7457 88.964 84.1442 86.666 84.9411 84.7663C85.746 82.8667 86.893 81.4219 88.3821 80.4318C89.8793 79.4337 91.6622 78.9347 93.7308 78.9347C95.7995 78.9347 97.5784 79.4337 99.0675 80.4318C100.565 81.4299 101.716 82.8788 102.521 84.7784C103.326 86.67 103.724 88.964 103.716 91.6605C103.716 94.3731 103.313 96.6913 102.509 98.6151C101.712 100.539 100.569 102.008 99.0795 103.022C97.5904 104.036 95.8075 104.543 93.7308 104.543ZM93.7308 100.209C95.1475 100.209 96.2784 99.4964 97.1236 98.0717C97.9688 96.647 98.3873 94.5099 98.3793 91.6605C98.3793 89.785 98.1861 88.2235 97.7997 86.9759C97.4214 85.7282 96.8821 84.7905 96.1818 84.1626C95.4896 83.5348 94.6726 83.2209 93.7308 83.2209C92.3222 83.2209 91.1953 83.9252 90.3501 85.3338C89.505 86.7424 89.0784 88.8513 89.0703 91.6605C89.0703 93.5601 89.2595 95.1458 89.6378 96.4176C90.0241 97.6813 90.5675 98.6312 91.2678 99.267C91.968 99.8949 92.7891 100.209 93.7308 100.209ZM120.979 99.3636V98.0597C120.979 97.0696 121.188 96.16 121.606 95.331C122.033 94.4938 122.649 93.8258 123.454 93.3267C124.267 92.8196 125.257 92.5661 126.424 92.5661C127.607 92.5661 128.601 92.8156 129.406 93.3146C130.219 93.8137 130.831 94.4818 131.241 95.3189C131.66 96.148 131.869 97.0616 131.869 98.0597V99.3636C131.869 100.354 131.66 101.267 131.241 102.104C130.823 102.933 130.207 103.598 129.394 104.097C128.581 104.604 127.591 104.857 126.424 104.857C125.241 104.857 124.247 104.604 123.442 104.097C122.637 103.598 122.025 102.933 121.606 102.104C121.188 101.267 120.979 100.354 120.979 99.3636ZM124.492 98.0597V99.3636C124.492 99.9351 124.629 100.474 124.903 100.982C125.184 101.489 125.691 101.742 126.424 101.742C127.156 101.742 127.655 101.493 127.921 100.994C128.195 100.495 128.332 99.9512 128.332 99.3636V98.0597C128.332 97.4721 128.203 96.9247 127.945 96.4176C127.688 95.9105 127.18 95.657 126.424 95.657C125.699 95.657 125.196 95.9105 124.915 96.4176C124.633 96.9247 124.492 97.4721 124.492 98.0597ZM108.289 85.2131V83.9091C108.289 82.911 108.502 81.9974 108.929 81.1683C109.355 80.3312 109.971 79.6631 110.776 79.1641C111.589 78.665 112.571 78.4155 113.722 78.4155C114.913 78.4155 115.912 78.665 116.716 79.1641C117.521 79.6631 118.133 80.3312 118.552 81.1683C118.97 81.9974 119.18 82.911 119.18 83.9091V85.2131C119.18 86.2112 118.966 87.1248 118.54 87.9538C118.121 88.7829 117.505 89.447 116.692 89.946C115.887 90.437 114.897 90.6825 113.722 90.6825C112.547 90.6825 111.553 90.433 110.74 89.9339C109.935 89.4268 109.323 88.7628 108.905 87.9418C108.494 87.1127 108.289 86.2031 108.289 85.2131ZM111.827 83.9091V85.2131C111.827 85.8007 111.963 86.344 112.237 86.843C112.519 87.3421 113.014 87.5916 113.722 87.5916C114.463 87.5916 114.966 87.3421 115.231 86.843C115.505 86.344 115.642 85.8007 115.642 85.2131V83.9091C115.642 83.3215 115.513 82.7741 115.256 82.267C114.998 81.7599 114.487 81.5064 113.722 81.5064C113.006 81.5064 112.511 81.764 112.237 82.2791C111.963 82.7943 111.827 83.3376 111.827 83.9091ZM109.883 104L126.883 79.2727H130.046L113.046 104H109.883Z" fill="white"/>
<path d="M63.2798 125.205C62.7268 125.205 62.2249 125.1 61.7741 124.892C61.3234 124.68 60.9654 124.375 60.7003 123.977C60.4351 123.576 60.3026 123.091 60.3026 122.523C60.3026 122.023 60.401 121.617 60.598 121.307C60.795 120.992 61.0582 120.746 61.3878 120.568C61.7173 120.39 62.081 120.258 62.4787 120.17C62.8802 120.08 63.2836 120.008 63.6889 119.955C64.2192 119.886 64.6491 119.835 64.9787 119.801C65.312 119.763 65.5545 119.701 65.706 119.614C65.8613 119.527 65.9389 119.375 65.9389 119.159V119.114C65.9389 118.553 65.7855 118.117 65.4787 117.807C65.1757 117.496 64.7154 117.341 64.098 117.341C63.4579 117.341 62.956 117.481 62.5923 117.761C62.2287 118.042 61.973 118.341 61.8253 118.659L60.5526 118.205C60.7798 117.674 61.0829 117.261 61.4616 116.966C61.8442 116.667 62.2609 116.458 62.7116 116.341C63.1662 116.22 63.6132 116.159 64.0526 116.159C64.3329 116.159 64.6548 116.193 65.0185 116.261C65.3859 116.326 65.7401 116.46 66.081 116.665C66.4257 116.869 66.7116 117.178 66.9389 117.591C67.1662 118.004 67.2798 118.557 67.2798 119.25V125H65.9389V123.818H65.8707C65.7798 124.008 65.6283 124.21 65.4162 124.426C65.2041 124.642 64.9219 124.826 64.5696 124.977C64.2173 125.129 63.7874 125.205 63.2798 125.205ZM63.4844 124C64.0147 124 64.4616 123.896 64.8253 123.688C65.1927 123.479 65.4692 123.21 65.6548 122.881C65.8442 122.551 65.9389 122.205 65.9389 121.841V120.614C65.8821 120.682 65.7571 120.744 65.5639 120.801C65.3745 120.854 65.1548 120.902 64.9048 120.943C64.6586 120.981 64.4181 121.015 64.1832 121.045C63.9522 121.072 63.7647 121.095 63.6207 121.114C63.2723 121.159 62.9465 121.233 62.6435 121.335C62.3442 121.434 62.1018 121.583 61.9162 121.784C61.7344 121.981 61.6435 122.25 61.6435 122.591C61.6435 123.057 61.8158 123.409 62.1605 123.648C62.509 123.883 62.9503 124 63.4844 124ZM71.0682 113.364V125H69.7273V113.364H71.0682ZM77.0696 125.182C76.2514 125.182 75.5469 124.989 74.956 124.602C74.3651 124.216 73.9105 123.684 73.5923 123.006C73.2741 122.328 73.1151 121.553 73.1151 120.682C73.1151 119.795 73.2779 119.013 73.6037 118.335C73.9332 117.653 74.3916 117.121 74.9787 116.739C75.5696 116.352 76.259 116.159 77.0469 116.159C77.6605 116.159 78.2135 116.273 78.706 116.5C79.1984 116.727 79.6018 117.045 79.9162 117.455C80.2306 117.864 80.4257 118.341 80.5014 118.886H79.1605C79.0582 118.489 78.831 118.136 78.4787 117.83C78.1302 117.519 77.6605 117.364 77.0696 117.364C76.5469 117.364 76.0885 117.5 75.6946 117.773C75.3045 118.042 74.9995 118.422 74.7798 118.915C74.5639 119.403 74.456 119.977 74.456 120.636C74.456 121.311 74.562 121.898 74.7741 122.398C74.9901 122.898 75.2931 123.286 75.6832 123.562C76.0772 123.839 76.5393 123.977 77.0696 123.977C77.4181 123.977 77.7344 123.917 78.0185 123.795C78.3026 123.674 78.5431 123.5 78.7401 123.273C78.937 123.045 79.0772 122.773 79.1605 122.455H80.5014C80.4257 122.97 80.2382 123.434 79.9389 123.847C79.6435 124.256 79.2514 124.581 78.7628 124.824C78.2779 125.062 77.7135 125.182 77.0696 125.182ZM85.0298 125.205C84.4768 125.205 83.9749 125.1 83.5241 124.892C83.0734 124.68 82.7154 124.375 82.4503 123.977C82.1851 123.576 82.0526 123.091 82.0526 122.523C82.0526 122.023 82.151 121.617 82.348 121.307C82.545 120.992 82.8082 120.746 83.1378 120.568C83.4673 120.39 83.831 120.258 84.2287 120.17C84.6302 120.08 85.0336 120.008 85.4389 119.955C85.9692 119.886 86.3991 119.835 86.7287 119.801C87.062 119.763 87.3045 119.701 87.456 119.614C87.6113 119.527 87.6889 119.375 87.6889 119.159V119.114C87.6889 118.553 87.5355 118.117 87.2287 117.807C86.9257 117.496 86.4654 117.341 85.848 117.341C85.2079 117.341 84.706 117.481 84.3423 117.761C83.9787 118.042 83.723 118.341 83.5753 118.659L82.3026 118.205C82.5298 117.674 82.8329 117.261 83.2116 116.966C83.5942 116.667 84.0109 116.458 84.4616 116.341C84.9162 116.22 85.3632 116.159 85.8026 116.159C86.0829 116.159 86.4048 116.193 86.7685 116.261C87.1359 116.326 87.4901 116.46 87.831 116.665C88.1757 116.869 88.4616 117.178 88.6889 117.591C88.9162 118.004 89.0298 118.557 89.0298 119.25V125H87.6889V123.818H87.6207C87.5298 124.008 87.3783 124.21 87.1662 124.426C86.9541 124.642 86.6719 124.826 86.3196 124.977C85.9673 125.129 85.5374 125.205 85.0298 125.205ZM85.2344 124C85.7647 124 86.2116 123.896 86.5753 123.688C86.9427 123.479 87.2192 123.21 87.4048 122.881C87.5942 122.551 87.6889 122.205 87.6889 121.841V120.614C87.6321 120.682 87.5071 120.744 87.3139 120.801C87.1245 120.854 86.9048 120.902 86.6548 120.943C86.4086 120.981 86.1681 121.015 85.9332 121.045C85.7022 121.072 85.5147 121.095 85.3707 121.114C85.0223 121.159 84.6965 121.233 84.3935 121.335C84.0942 121.434 83.8518 121.583 83.6662 121.784C83.4844 121.981 83.3935 122.25 83.3935 122.591C83.3935 123.057 83.5658 123.409 83.9105 123.648C84.259 123.883 84.7003 124 85.2344 124ZM92.8182 119.75V125H91.4773V116.273H92.7727V117.636H92.8864C93.0909 117.193 93.4015 116.837 93.8182 116.568C94.2348 116.295 94.7727 116.159 95.4318 116.159C96.0227 116.159 96.5398 116.28 96.983 116.523C97.4261 116.761 97.7708 117.125 98.017 117.614C98.2633 118.098 98.3864 118.712 98.3864 119.455V125H97.0455V119.545C97.0455 118.86 96.8674 118.326 96.5114 117.943C96.1553 117.557 95.6667 117.364 95.0455 117.364C94.6174 117.364 94.2348 117.456 93.8977 117.642C93.5644 117.828 93.3011 118.098 93.108 118.455C92.9148 118.811 92.8182 119.242 92.8182 119.75ZM104.382 125.182C103.564 125.182 102.859 124.989 102.268 124.602C101.678 124.216 101.223 123.684 100.905 123.006C100.587 122.328 100.428 121.553 100.428 120.682C100.428 119.795 100.59 119.013 100.916 118.335C101.246 117.653 101.704 117.121 102.291 116.739C102.882 116.352 103.571 116.159 104.359 116.159C104.973 116.159 105.526 116.273 106.018 116.5C106.511 116.727 106.914 117.045 107.229 117.455C107.543 117.864 107.738 118.341 107.814 118.886H106.473C106.371 118.489 106.143 118.136 105.791 117.83C105.443 117.519 104.973 117.364 104.382 117.364C103.859 117.364 103.401 117.5 103.007 117.773C102.617 118.042 102.312 118.422 102.092 118.915C101.876 119.403 101.768 119.977 101.768 120.636C101.768 121.311 101.875 121.898 102.087 122.398C102.303 122.898 102.606 123.286 102.996 123.562C103.39 123.839 103.852 123.977 104.382 123.977C104.731 123.977 105.047 123.917 105.331 123.795C105.615 123.674 105.856 123.5 106.053 123.273C106.25 123.045 106.39 122.773 106.473 122.455H107.814C107.738 122.97 107.551 123.434 107.251 123.847C106.956 124.256 106.564 124.581 106.075 124.824C105.59 125.062 105.026 125.182 104.382 125.182ZM103.746 124.955H104.859L104.768 125.409C105.064 125.455 105.335 125.578 105.581 125.778C105.827 125.983 105.95 126.307 105.95 126.75C105.95 127.239 105.748 127.636 105.342 127.943C104.941 128.254 104.348 128.409 103.564 128.409L103.518 127.523C103.871 127.523 104.162 127.466 104.393 127.352C104.628 127.242 104.746 127.057 104.746 126.795C104.746 126.534 104.649 126.356 104.456 126.261C104.263 126.167 103.95 126.102 103.518 126.068L103.746 124.955ZM112.342 125.205C111.789 125.205 111.287 125.1 110.837 124.892C110.386 124.68 110.028 124.375 109.763 123.977C109.498 123.576 109.365 123.091 109.365 122.523C109.365 122.023 109.464 121.617 109.661 121.307C109.857 120.992 110.121 120.746 110.45 120.568C110.78 120.39 111.143 120.258 111.541 120.17C111.943 120.08 112.346 120.008 112.751 119.955C113.282 119.886 113.712 119.835 114.041 119.801C114.375 119.763 114.617 119.701 114.768 119.614C114.924 119.527 115.001 119.375 115.001 119.159V119.114C115.001 118.553 114.848 118.117 114.541 117.807C114.238 117.496 113.778 117.341 113.161 117.341C112.52 117.341 112.018 117.481 111.655 117.761C111.291 118.042 111.036 118.341 110.888 118.659L109.615 118.205C109.842 117.674 110.145 117.261 110.524 116.966C110.907 116.667 111.323 116.458 111.774 116.341C112.229 116.22 112.676 116.159 113.115 116.159C113.395 116.159 113.717 116.193 114.081 116.261C114.448 116.326 114.803 116.46 115.143 116.665C115.488 116.869 115.774 117.178 116.001 117.591C116.229 118.004 116.342 118.557 116.342 119.25V125H115.001V123.818H114.933C114.842 124.008 114.691 124.21 114.479 124.426C114.267 124.642 113.984 124.826 113.632 124.977C113.28 125.129 112.85 125.205 112.342 125.205ZM112.547 124C113.077 124 113.524 123.896 113.888 123.688C114.255 123.479 114.532 123.21 114.717 122.881C114.907 122.551 115.001 122.205 115.001 121.841V120.614C114.945 120.682 114.82 120.744 114.626 120.801C114.437 120.854 114.217 120.902 113.967 120.943C113.721 120.981 113.481 121.015 113.246 121.045C113.015 121.072 112.827 121.095 112.683 121.114C112.335 121.159 112.009 121.233 111.706 121.335C111.407 121.434 111.164 121.583 110.979 121.784C110.797 121.981 110.706 122.25 110.706 122.591C110.706 123.057 110.878 123.409 111.223 123.648C111.571 123.883 112.013 124 112.547 124ZM122.085 125.182C121.358 125.182 120.716 124.998 120.159 124.631C119.602 124.259 119.167 123.737 118.852 123.062C118.538 122.384 118.381 121.583 118.381 120.659C118.381 119.742 118.538 118.947 118.852 118.273C119.167 117.598 119.604 117.078 120.165 116.71C120.725 116.343 121.373 116.159 122.108 116.159C122.676 116.159 123.125 116.254 123.455 116.443C123.788 116.629 124.042 116.841 124.216 117.08C124.394 117.314 124.532 117.508 124.631 117.659H124.744V113.364H126.085V125H124.79V123.659H124.631C124.532 123.818 124.392 124.019 124.21 124.261C124.028 124.5 123.769 124.714 123.432 124.903C123.095 125.089 122.646 125.182 122.085 125.182ZM122.267 123.977C122.805 123.977 123.259 123.837 123.631 123.557C124.002 123.273 124.284 122.881 124.477 122.381C124.67 121.877 124.767 121.295 124.767 120.636C124.767 119.985 124.672 119.415 124.483 118.926C124.294 118.434 124.013 118.051 123.642 117.778C123.271 117.502 122.813 117.364 122.267 117.364C121.699 117.364 121.225 117.509 120.847 117.801C120.472 118.089 120.189 118.481 120 118.977C119.814 119.47 119.722 120.023 119.722 120.636C119.722 121.258 119.816 121.822 120.006 122.33C120.199 122.833 120.483 123.235 120.858 123.534C121.237 123.83 121.706 123.977 122.267 123.977ZM131.295 125.205C130.742 125.205 130.241 125.1 129.79 124.892C129.339 124.68 128.981 124.375 128.716 123.977C128.451 123.576 128.318 123.091 128.318 122.523C128.318 122.023 128.417 121.617 128.614 121.307C128.811 120.992 129.074 120.746 129.403 120.568C129.733 120.39 130.097 120.258 130.494 120.17C130.896 120.08 131.299 120.008 131.705 119.955C132.235 119.886 132.665 119.835 132.994 119.801C133.328 119.763 133.57 119.701 133.722 119.614C133.877 119.527 133.955 119.375 133.955 119.159V119.114C133.955 118.553 133.801 118.117 133.494 117.807C133.191 117.496 132.731 117.341 132.114 117.341C131.473 117.341 130.972 117.481 130.608 117.761C130.244 118.042 129.989 118.341 129.841 118.659L128.568 118.205C128.795 117.674 129.098 117.261 129.477 116.966C129.86 116.667 130.277 116.458 130.727 116.341C131.182 116.22 131.629 116.159 132.068 116.159C132.348 116.159 132.67 116.193 133.034 116.261C133.402 116.326 133.756 116.46 134.097 116.665C134.441 116.869 134.727 117.178 134.955 117.591C135.182 118.004 135.295 118.557 135.295 119.25V125H133.955V123.818H133.886C133.795 124.008 133.644 124.21 133.432 124.426C133.22 124.642 132.938 124.826 132.585 124.977C132.233 125.129 131.803 125.205 131.295 125.205ZM131.5 124C132.03 124 132.477 123.896 132.841 123.688C133.208 123.479 133.485 123.21 133.67 122.881C133.86 122.551 133.955 122.205 133.955 121.841V120.614C133.898 120.682 133.773 120.744 133.58 120.801C133.39 120.854 133.17 120.902 132.92 120.943C132.674 120.981 132.434 121.015 132.199 121.045C131.968 121.072 131.78 121.095 131.636 121.114C131.288 121.159 130.962 121.233 130.659 121.335C130.36 121.434 130.117 121.583 129.932 121.784C129.75 121.981 129.659 122.25 129.659 122.591C129.659 123.057 129.831 123.409 130.176 123.648C130.525 123.883 130.966 124 131.5 124Z" fill="white"/>
<defs>
<linearGradient id="paint0_linear_201_83" x1="1.97421e-07" y1="82" x2="154" y2="178" gradientUnits="userSpaceOnUse">
<stop stop-color="#CE9FFC"/>
<stop offset="1" stop-color="#7367F0"/>
</linearGradient>
</defs>
</svg>
