<svg width="197" height="197" viewBox="0 0 197 197" fill="none" xmlns="http://www.w3.org/2000/svg">
<path opacity="0.1" d="M197 98.5C197 152.9 152.9 197 98.5 197C44.1 197 0 152.9 0 98.5C0 44.1 44.1 0 98.5 0C152.9 0 197 44.1 197 98.5ZM29.7666 98.5C29.7666 136.46 60.5396 167.233 98.5 167.233C136.46 167.233 167.233 136.46 167.233 98.5C167.233 60.5396 136.46 29.7666 98.5 29.7666C60.5396 29.7666 29.7666 60.5396 29.7666 98.5Z" fill="#D9D9D9"/>
<path d="M98.5 14.775C98.5 6.615 105.152 -0.113419 113.22 1.10605C126.193 3.06681 138.695 7.60779 149.966 14.5149C165.455 24.0064 178.017 37.5963 186.264 53.7819C194.511 69.9676 198.122 88.1186 196.696 106.228C195.271 124.338 188.866 141.701 178.188 156.397C167.511 171.093 152.977 182.55 136.194 189.502C119.411 196.454 101.033 198.629 83.0912 195.787C65.1493 192.946 48.3426 185.198 34.5294 173.4C24.4772 164.815 16.2952 154.328 10.4216 142.596C6.76851 135.299 11.1122 126.894 18.8728 124.372V124.372C26.6334 121.851 34.8412 126.217 38.9554 133.264C42.8349 139.909 47.817 145.888 53.7206 150.93C63.3898 159.188 75.1545 164.612 87.7138 166.601C100.273 168.59 113.138 167.068 124.886 162.201C136.634 157.335 146.807 149.315 154.282 139.028C161.756 128.74 166.24 116.586 167.237 103.91C168.235 91.233 165.708 78.5273 159.935 67.1974C154.162 55.8674 145.368 46.3545 134.526 39.7105C127.907 35.6539 120.681 32.7633 113.162 31.127C105.189 29.3917 98.5 22.935 98.5 14.775V14.775Z" fill="url(#paint0_linear_201_83)"/>
<path d="M65.324 104L75.5748 83.7159V83.5469H63.6337V79.2727H80.9838V83.6072L70.7211 104H65.324ZM93.7308 104.543C91.6541 104.535 89.8672 104.024 88.37 103.01C86.8809 101.996 85.7339 100.527 84.929 98.603C84.1321 96.6792 83.7377 94.3651 83.7457 91.6605C83.7457 88.964 84.1442 86.666 84.9411 84.7663C85.746 82.8667 86.893 81.4219 88.3821 80.4318C89.8793 79.4337 91.6622 78.9347 93.7308 78.9347C95.7995 78.9347 97.5784 79.4337 99.0675 80.4318C100.565 81.4299 101.716 82.8788 102.521 84.7784C103.326 86.67 103.724 88.964 103.716 91.6605C103.716 94.3731 103.313 96.6913 102.509 98.6151C101.712 100.539 100.569 102.008 99.0795 103.022C97.5904 104.036 95.8075 104.543 93.7308 104.543ZM93.7308 100.209C95.1475 100.209 96.2784 99.4964 97.1236 98.0717C97.9688 96.647 98.3873 94.5099 98.3793 91.6605C98.3793 89.785 98.1861 88.2235 97.7997 86.9759C97.4214 85.7282 96.8821 84.7905 96.1818 84.1626C95.4896 83.5348 94.6726 83.2209 93.7308 83.2209C92.3222 83.2209 91.1953 83.9252 90.3501 85.3338C89.505 86.7424 89.0784 88.8513 89.0703 91.6605C89.0703 93.5601 89.2595 95.1458 89.6378 96.4176C90.0241 97.6813 90.5675 98.6312 91.2678 99.267C91.968 99.8949 92.7891 100.209 93.7308 100.209ZM120.979 99.3636V98.0597C120.979 97.0696 121.188 96.16 121.606 95.331C122.033 94.4938 122.649 93.8258 123.454 93.3267C124.267 92.8196 125.257 92.5661 126.424 92.5661C127.607 92.5661 128.601 92.8156 129.406 93.3146C130.219 93.8137 130.831 94.4818 131.241 95.3189C131.66 96.148 131.869 97.0616 131.869 98.0597V99.3636C131.869 100.354 131.66 101.267 131.241 102.104C130.823 102.933 130.207 103.598 129.394 104.097C128.581 104.604 127.591 104.857 126.424 104.857C125.241 104.857 124.247 104.604 123.442 104.097C122.637 103.598 122.025 102.933 121.606 102.104C121.188 101.267 120.979 100.354 120.979 99.3636ZM124.492 98.0597V99.3636C124.492 99.9351 124.629 100.474 124.903 100.982C125.184 101.489 125.691 101.742 126.424 101.742C127.156 101.742 127.655 101.493 127.921 100.994C128.195 100.495 128.332 99.9512 128.332 99.3636V98.0597C128.332 97.4721 128.203 96.9247 127.945 96.4176C127.688 95.9105 127.18 95.657 126.424 95.657C125.699 95.657 125.196 95.9105 124.915 96.4176C124.633 96.9247 124.492 97.4721 124.492 98.0597ZM108.289 85.2131V83.9091C108.289 82.911 108.502 81.9974 108.929 81.1683C109.355 80.3312 109.971 79.6631 110.776 79.1641C111.589 78.665 112.571 78.4155 113.722 78.4155C114.913 78.4155 115.912 78.665 116.716 79.1641C117.521 79.6631 118.133 80.3312 118.552 81.1683C118.97 81.9974 119.18 82.911 119.18 83.9091V85.2131C119.18 86.2112 118.966 87.1248 118.54 87.9538C118.121 88.7829 117.505 89.447 116.692 89.946C115.887 90.437 114.897 90.6825 113.722 90.6825C112.547 90.6825 111.553 90.433 110.74 89.9339C109.935 89.4268 109.323 88.7628 108.905 87.9418C108.494 87.1127 108.289 86.2031 108.289 85.2131ZM111.827 83.9091V85.2131C111.827 85.8007 111.963 86.344 112.237 86.843C112.519 87.3421 113.014 87.5916 113.722 87.5916C114.463 87.5916 114.966 87.3421 115.231 86.843C115.505 86.344 115.642 85.8007 115.642 85.2131V83.9091C115.642 83.3215 115.513 82.7741 115.256 82.267C114.998 81.7599 114.487 81.5064 113.722 81.5064C113.006 81.5064 112.511 81.764 112.237 82.2791C111.963 82.7943 111.827 83.3376 111.827 83.9091ZM109.883 104L126.883 79.2727H130.046L113.046 104H109.883Z" fill="white"/>
<path d="M64.9411 125H63.4638L67.7365 113.364H69.1911L73.4638 125H71.9865L68.5092 115.205H68.4183L64.9411 125ZM65.4865 120.455H71.4411V121.705H65.4865V120.455ZM78.6399 125.182C77.8217 125.182 77.1172 124.989 76.5263 124.602C75.9354 124.216 75.4808 123.684 75.1626 123.006C74.8445 122.328 74.6854 121.553 74.6854 120.682C74.6854 119.795 74.8482 119.013 75.174 118.335C75.5036 117.653 75.9619 117.121 76.549 116.739C77.1399 116.352 77.8293 116.159 78.6172 116.159C79.2308 116.159 79.7839 116.273 80.2763 116.5C80.7687 116.727 81.1721 117.045 81.4865 117.455C81.8009 117.864 81.996 118.341 82.0717 118.886H80.7308C80.6286 118.489 80.4013 118.136 80.049 117.83C79.7005 117.519 79.2308 117.364 78.6399 117.364C78.1172 117.364 77.6589 117.5 77.2649 117.773C76.8748 118.042 76.5698 118.422 76.3501 118.915C76.1342 119.403 76.0263 119.977 76.0263 120.636C76.0263 121.311 76.1323 121.898 76.3445 122.398C76.5604 122.898 76.8634 123.286 77.2536 123.562C77.6475 123.839 78.1096 123.977 78.6399 123.977C78.9884 123.977 79.3047 123.917 79.5888 123.795C79.8729 123.674 80.1134 123.5 80.3104 123.273C80.5073 123.045 80.6475 122.773 80.7308 122.455H82.0717C81.996 122.97 81.8085 123.434 81.5092 123.847C81.2138 124.256 80.8217 124.581 80.3331 124.824C79.8482 125.062 79.2839 125.182 78.6399 125.182ZM85.3729 119.75V125H84.032V113.364H85.3729V117.636H85.4865C85.6911 117.186 85.9979 116.828 86.407 116.562C86.8198 116.294 87.3691 116.159 88.0547 116.159C88.6494 116.159 89.1702 116.278 89.6172 116.517C90.0642 116.752 90.4107 117.114 90.657 117.602C90.907 118.087 91.032 118.705 91.032 119.455V125H89.6911V119.545C89.6911 118.852 89.5111 118.316 89.1513 117.938C88.7952 117.555 88.3009 117.364 87.6683 117.364C87.2289 117.364 86.835 117.456 86.4865 117.642C86.1418 117.828 85.8691 118.098 85.6683 118.455C85.4714 118.811 85.3729 119.242 85.3729 119.75ZM93.4851 125V116.273H94.826V125H93.4851ZM94.1669 114.818C93.9055 114.818 93.6802 114.729 93.4908 114.551C93.3052 114.373 93.2124 114.159 93.2124 113.909C93.2124 113.659 93.3052 113.445 93.4908 113.267C93.6802 113.089 93.9055 113 94.1669 113C94.4283 113 94.6518 113.089 94.8374 113.267C95.0268 113.445 95.1214 113.659 95.1214 113.909C95.1214 114.159 95.0268 114.373 94.8374 114.551C94.6518 114.729 94.4283 114.818 94.1669 114.818ZM100.941 125.182C100.1 125.182 99.3748 124.996 98.7649 124.625C98.1589 124.25 97.6911 123.727 97.3615 123.057C97.0357 122.383 96.8729 121.598 96.8729 120.705C96.8729 119.811 97.0357 119.023 97.3615 118.341C97.6911 117.655 98.1494 117.121 98.7365 116.739C99.3274 116.352 100.017 116.159 100.805 116.159C101.259 116.159 101.708 116.235 102.151 116.386C102.594 116.538 102.998 116.784 103.362 117.125C103.725 117.462 104.015 117.909 104.231 118.466C104.447 119.023 104.555 119.708 104.555 120.523V121.091H97.8274V119.932H103.191C103.191 119.439 103.093 119 102.896 118.614C102.702 118.227 102.426 117.922 102.066 117.699C101.71 117.475 101.29 117.364 100.805 117.364C100.271 117.364 99.8085 117.496 99.4183 117.761C99.032 118.023 98.7346 118.364 98.5263 118.784C98.3179 119.205 98.2138 119.655 98.2138 120.136V120.909C98.2138 121.568 98.3274 122.127 98.5547 122.585C98.7857 123.04 99.1058 123.386 99.5149 123.625C99.924 123.86 100.399 123.977 100.941 123.977C101.293 123.977 101.612 123.928 101.896 123.83C102.183 123.727 102.432 123.576 102.64 123.375C102.848 123.17 103.009 122.917 103.123 122.614L104.418 122.977C104.282 123.417 104.053 123.803 103.731 124.136C103.409 124.466 103.011 124.723 102.538 124.909C102.064 125.091 101.532 125.182 100.941 125.182ZM113.465 116.273L110.238 125H108.874L105.647 116.273H107.102L109.511 123.227H109.602L112.011 116.273H113.465ZM118.582 125.182C117.741 125.182 117.015 124.996 116.406 124.625C115.799 124.25 115.332 123.727 115.002 123.057C114.676 122.383 114.513 121.598 114.513 120.705C114.513 119.811 114.676 119.023 115.002 118.341C115.332 117.655 115.79 117.121 116.377 116.739C116.968 116.352 117.657 116.159 118.445 116.159C118.9 116.159 119.349 116.235 119.792 116.386C120.235 116.538 120.638 116.784 121.002 117.125C121.366 117.462 121.656 117.909 121.871 118.466C122.087 119.023 122.195 119.708 122.195 120.523V121.091H115.468V119.932H120.832C120.832 119.439 120.733 119 120.536 118.614C120.343 118.227 120.067 117.922 119.707 117.699C119.351 117.475 118.93 117.364 118.445 117.364C117.911 117.364 117.449 117.496 117.059 117.761C116.673 118.023 116.375 118.364 116.167 118.784C115.959 119.205 115.854 119.655 115.854 120.136V120.909C115.854 121.568 115.968 122.127 116.195 122.585C116.426 123.04 116.746 123.386 117.156 123.625C117.565 123.86 118.04 123.977 118.582 123.977C118.934 123.977 119.252 123.928 119.536 123.83C119.824 123.727 120.072 123.576 120.281 123.375C120.489 123.17 120.65 122.917 120.763 122.614L122.059 122.977C121.923 123.417 121.693 123.803 121.371 124.136C121.049 124.466 120.652 124.723 120.178 124.909C119.705 125.091 119.173 125.182 118.582 125.182ZM127.531 125.182C126.803 125.182 126.161 124.998 125.604 124.631C125.048 124.259 124.612 123.737 124.298 123.062C123.983 122.384 123.826 121.583 123.826 120.659C123.826 119.742 123.983 118.947 124.298 118.273C124.612 117.598 125.049 117.078 125.61 116.71C126.171 116.343 126.818 116.159 127.553 116.159C128.121 116.159 128.57 116.254 128.9 116.443C129.233 116.629 129.487 116.841 129.661 117.08C129.839 117.314 129.978 117.508 130.076 117.659H130.19V113.364H131.531V125H130.235V123.659H130.076C129.978 123.818 129.837 124.019 129.656 124.261C129.474 124.5 129.214 124.714 128.877 124.903C128.54 125.089 128.091 125.182 127.531 125.182ZM127.712 123.977C128.25 123.977 128.705 123.837 129.076 123.557C129.447 123.273 129.729 122.881 129.923 122.381C130.116 121.877 130.212 121.295 130.212 120.636C130.212 119.985 130.118 119.415 129.928 118.926C129.739 118.434 129.459 118.051 129.087 117.778C128.716 117.502 128.258 117.364 127.712 117.364C127.144 117.364 126.671 117.509 126.292 117.801C125.917 118.089 125.635 118.481 125.445 118.977C125.26 119.47 125.167 120.023 125.167 120.636C125.167 121.258 125.262 121.822 125.451 122.33C125.644 122.833 125.928 123.235 126.303 123.534C126.682 123.83 127.152 123.977 127.712 123.977Z" fill="white"/>
<defs>
<linearGradient id="paint0_linear_201_83" x1="1.97421e-07" y1="82" x2="154" y2="178" gradientUnits="userSpaceOnUse">
<stop stop-color="#CE9FFC"/>
<stop offset="1" stop-color="#7367F0"/>
</linearGradient>
</defs>
</svg>
