<svg width="197" height="197" viewBox="0 0 197 197" fill="none" xmlns="http://www.w3.org/2000/svg">
<path opacity="0.1" d="M197 98.5C197 152.9 152.9 197 98.5 197C44.1 197 0 152.9 0 98.5C0 44.1 44.1 0 98.5 0C152.9 0 197 44.1 197 98.5ZM29.7666 98.5C29.7666 136.46 60.5396 167.233 98.5 167.233C136.46 167.233 167.233 136.46 167.233 98.5C167.233 60.5396 136.46 29.7666 98.5 29.7666C60.5396 29.7666 29.7666 60.5396 29.7666 98.5Z" fill="#D9D9D9"/>
<path d="M98.5 14.775C98.5 6.615 105.152 -0.113552 113.22 1.1059C131.319 3.84143 148.404 11.5857 162.471 23.6C180.305 38.8316 192.118 59.9268 195.787 83.0912C199.456 106.256 194.739 129.969 182.485 149.966C170.231 169.963 151.243 184.932 128.938 192.179C106.633 199.426 82.4735 198.477 60.8057 189.502C39.1378 180.527 21.3833 164.115 10.7358 143.218C0.0883385 122.321 -2.75347 98.3107 2.72157 75.5056C7.04015 57.5175 16.3096 41.2104 29.3443 28.3588C35.155 22.6298 44.4914 24.1634 49.2877 30.765V30.765C54.084 37.3666 52.4674 46.5219 47.0368 52.6125C39.5144 61.0493 34.129 71.2663 31.4551 82.4039C27.6226 98.3675 29.6118 115.175 37.0651 129.803C44.5183 144.43 56.9464 155.919 72.114 162.201C87.2815 168.484 104.193 169.149 119.807 164.075C135.42 159.002 148.712 148.524 157.29 134.526C165.868 120.528 169.169 103.929 166.601 87.7139C164.033 71.4988 155.763 56.7321 143.279 46.07C134.57 38.6311 124.207 33.5308 113.163 31.127C105.189 29.3916 98.5 22.935 98.5 14.775V14.775Z" fill="url(#paint0_linear_201_102)"/>
<path d="M71.4149 78.9347C72.6866 78.9347 73.9101 79.148 75.0853 79.5746C76.2686 80.0012 77.323 80.6813 78.2487 81.6151C79.1824 82.5488 79.9189 83.7884 80.4582 85.3338C81.0055 86.8712 81.2832 88.7588 81.2913 90.9964C81.2913 93.0973 81.0538 94.9728 80.5789 96.6229C80.1121 98.2649 79.44 99.6615 78.5626 100.812C77.6852 101.964 76.6267 102.841 75.3872 103.445C74.1476 104.04 72.7631 104.338 71.2338 104.338C69.5837 104.338 68.1267 104.02 66.863 103.384C65.5993 102.74 64.5811 101.867 63.8083 100.764C63.0436 99.6534 62.5808 98.4058 62.4198 97.0213H67.5754C67.7766 97.9228 68.1992 98.6231 68.8431 99.1222C69.4871 99.6132 70.2839 99.8587 71.2338 99.8587C72.8436 99.8587 74.0671 99.1584 74.9042 97.7578C75.7413 96.3492 76.1639 94.4214 76.172 91.9744H76.0029C75.6327 92.6989 75.1336 93.3227 74.5058 93.8459C73.8779 94.361 73.1575 94.7595 72.3445 95.0412C71.5396 95.3229 70.6824 95.4638 69.7728 95.4638C68.3159 95.4638 67.016 95.1217 65.873 94.4375C64.73 93.7533 63.8285 92.8116 63.1684 91.6122C62.5084 90.4129 62.1784 89.0445 62.1784 87.5071C62.1703 85.849 62.5526 84.3719 63.3254 83.076C64.0981 81.7801 65.1767 80.7659 66.5612 80.0334C67.9537 79.2928 69.5716 78.9266 71.4149 78.9347ZM71.4511 83.0398C70.6381 83.0398 69.9137 83.233 69.2778 83.6193C68.6499 84.0057 68.1509 84.5249 67.7806 85.1768C67.4184 85.8288 67.2413 86.5573 67.2494 87.3622C67.2494 88.1752 67.4265 88.9077 67.7806 89.5597C68.1428 90.2036 68.6338 90.7187 69.2536 91.1051C69.8815 91.4834 70.5979 91.6726 71.4028 91.6726C72.0065 91.6726 72.5659 91.5599 73.0811 91.3345C73.5962 91.1091 74.0429 90.7992 74.4213 90.4048C74.8076 90.0024 75.1095 89.5395 75.3268 89.0163C75.5441 88.4931 75.6528 87.9377 75.6528 87.3501C75.6447 86.5694 75.4596 85.853 75.0974 85.201C74.7352 84.549 74.2361 84.0258 73.6002 83.6314C72.9643 83.237 72.248 83.0398 71.4511 83.0398ZM94.6088 104.543C92.532 104.535 90.7451 104.024 89.248 103.01C87.7588 101.996 86.6118 100.527 85.8069 98.603C85.01 96.6792 84.6156 94.3651 84.6237 91.6605C84.6237 88.964 85.0221 86.666 85.819 84.7663C86.6239 82.8667 87.7709 81.4219 89.26 80.4318C90.7572 79.4337 92.5401 78.9347 94.6088 78.9347C96.6774 78.9347 98.4563 79.4337 99.9454 80.4318C101.443 81.4299 102.594 82.8788 103.399 84.7784C104.203 86.67 104.602 88.964 104.594 91.6605C104.594 94.3731 104.191 96.6913 103.386 98.6151C102.59 100.539 101.447 102.008 99.9575 103.022C98.4684 104.036 96.6855 104.543 94.6088 104.543ZM94.6088 100.209C96.0254 100.209 97.1563 99.4964 98.0015 98.0717C98.8467 96.647 99.2652 94.5099 99.2572 91.6605C99.2572 89.785 99.064 88.2235 98.6776 86.9759C98.2993 85.7282 97.76 84.7905 97.0597 84.1626C96.3675 83.5348 95.5505 83.2209 94.6088 83.2209C93.2001 83.2209 92.0732 83.9252 91.2281 85.3338C90.3829 86.7424 89.9563 88.8513 89.9482 91.6605C89.9482 93.5601 90.1374 95.1458 90.5157 96.4176C90.9021 97.6813 91.4454 98.6312 92.1457 99.267C92.846 99.8949 93.667 100.209 94.6088 100.209ZM121.856 99.3636V98.0597C121.856 97.0696 122.066 96.16 122.484 95.331C122.911 94.4938 123.527 93.8258 124.332 93.3267C125.145 92.8196 126.135 92.5661 127.302 92.5661C128.485 92.5661 129.479 92.8156 130.284 93.3146C131.097 93.8137 131.709 94.4818 132.119 95.3189C132.538 96.148 132.747 97.0616 132.747 98.0597V99.3636C132.747 100.354 132.538 101.267 132.119 102.104C131.701 102.933 131.085 103.598 130.272 104.097C129.459 104.604 128.469 104.857 127.302 104.857C126.119 104.857 125.124 104.604 124.32 104.097C123.515 103.598 122.903 102.933 122.484 102.104C122.066 101.267 121.856 100.354 121.856 99.3636ZM125.37 98.0597V99.3636C125.37 99.9351 125.507 100.474 125.78 100.982C126.062 101.489 126.569 101.742 127.302 101.742C128.034 101.742 128.533 101.493 128.799 100.994C129.073 100.495 129.209 99.9512 129.209 99.3636V98.0597C129.209 97.4721 129.081 96.9247 128.823 96.4176C128.565 95.9105 128.058 95.657 127.302 95.657C126.577 95.657 126.074 95.9105 125.793 96.4176C125.511 96.9247 125.37 97.4721 125.37 98.0597ZM109.167 85.2131V83.9091C109.167 82.911 109.38 81.9974 109.807 81.1683C110.233 80.3312 110.849 79.6631 111.654 79.1641C112.467 78.665 113.449 78.4155 114.6 78.4155C115.791 78.4155 116.789 78.665 117.594 79.1641C118.399 79.6631 119.011 80.3312 119.43 81.1683C119.848 81.9974 120.057 82.911 120.057 83.9091V85.2131C120.057 86.2112 119.844 87.1248 119.418 87.9538C118.999 88.7829 118.383 89.447 117.57 89.946C116.765 90.437 115.775 90.6825 114.6 90.6825C113.425 90.6825 112.431 90.433 111.618 89.9339C110.813 89.4268 110.201 88.7628 109.783 87.9418C109.372 87.1127 109.167 86.2031 109.167 85.2131ZM112.704 83.9091V85.2131C112.704 85.8007 112.841 86.344 113.115 86.843C113.397 87.3421 113.892 87.5916 114.6 87.5916C115.341 87.5916 115.844 87.3421 116.109 86.843C116.383 86.344 116.52 85.8007 116.52 85.2131V83.9091C116.52 83.3215 116.391 82.7741 116.133 82.267C115.876 81.7599 115.365 81.5064 114.6 81.5064C113.884 81.5064 113.389 81.764 113.115 82.2791C112.841 82.7943 112.704 83.3376 112.704 83.9091ZM110.761 104L127.761 79.2727H130.924L113.924 104H110.761Z" fill="white"/>
<path d="M64.9411 125H63.4638L67.7365 113.364H69.1911L73.4638 125H71.9865L68.5092 115.205H68.4183L64.9411 125ZM65.4865 120.455H71.4411V121.705H65.4865V120.455ZM78.6399 125.182C77.8217 125.182 77.1172 124.989 76.5263 124.602C75.9354 124.216 75.4808 123.684 75.1626 123.006C74.8445 122.328 74.6854 121.553 74.6854 120.682C74.6854 119.795 74.8482 119.013 75.174 118.335C75.5036 117.653 75.9619 117.121 76.549 116.739C77.1399 116.352 77.8293 116.159 78.6172 116.159C79.2308 116.159 79.7839 116.273 80.2763 116.5C80.7687 116.727 81.1721 117.045 81.4865 117.455C81.8009 117.864 81.996 118.341 82.0717 118.886H80.7308C80.6286 118.489 80.4013 118.136 80.049 117.83C79.7005 117.519 79.2308 117.364 78.6399 117.364C78.1172 117.364 77.6589 117.5 77.2649 117.773C76.8748 118.042 76.5698 118.422 76.3501 118.915C76.1342 119.403 76.0263 119.977 76.0263 120.636C76.0263 121.311 76.1323 121.898 76.3445 122.398C76.5604 122.898 76.8634 123.286 77.2536 123.562C77.6475 123.839 78.1096 123.977 78.6399 123.977C78.9884 123.977 79.3047 123.917 79.5888 123.795C79.8729 123.674 80.1134 123.5 80.3104 123.273C80.5073 123.045 80.6475 122.773 80.7308 122.455H82.0717C81.996 122.97 81.8085 123.434 81.5092 123.847C81.2138 124.256 80.8217 124.581 80.3331 124.824C79.8482 125.062 79.2839 125.182 78.6399 125.182ZM85.3729 119.75V125H84.032V113.364H85.3729V117.636H85.4865C85.6911 117.186 85.9979 116.828 86.407 116.562C86.8198 116.294 87.3691 116.159 88.0547 116.159C88.6494 116.159 89.1702 116.278 89.6172 116.517C90.0642 116.752 90.4107 117.114 90.657 117.602C90.907 118.087 91.032 118.705 91.032 119.455V125H89.6911V119.545C89.6911 118.852 89.5111 118.316 89.1513 117.938C88.7952 117.555 88.3009 117.364 87.6683 117.364C87.2289 117.364 86.835 117.456 86.4865 117.642C86.1418 117.828 85.8691 118.098 85.6683 118.455C85.4714 118.811 85.3729 119.242 85.3729 119.75ZM93.4851 125V116.273H94.826V125H93.4851ZM94.1669 114.818C93.9055 114.818 93.6802 114.729 93.4908 114.551C93.3052 114.373 93.2124 114.159 93.2124 113.909C93.2124 113.659 93.3052 113.445 93.4908 113.267C93.6802 113.089 93.9055 113 94.1669 113C94.4283 113 94.6518 113.089 94.8374 113.267C95.0268 113.445 95.1214 113.659 95.1214 113.909C95.1214 114.159 95.0268 114.373 94.8374 114.551C94.6518 114.729 94.4283 114.818 94.1669 114.818ZM100.941 125.182C100.1 125.182 99.3748 124.996 98.7649 124.625C98.1589 124.25 97.6911 123.727 97.3615 123.057C97.0357 122.383 96.8729 121.598 96.8729 120.705C96.8729 119.811 97.0357 119.023 97.3615 118.341C97.6911 117.655 98.1494 117.121 98.7365 116.739C99.3274 116.352 100.017 116.159 100.805 116.159C101.259 116.159 101.708 116.235 102.151 116.386C102.594 116.538 102.998 116.784 103.362 117.125C103.725 117.462 104.015 117.909 104.231 118.466C104.447 119.023 104.555 119.708 104.555 120.523V121.091H97.8274V119.932H103.191C103.191 119.439 103.093 119 102.896 118.614C102.702 118.227 102.426 117.922 102.066 117.699C101.71 117.475 101.29 117.364 100.805 117.364C100.271 117.364 99.8085 117.496 99.4183 117.761C99.032 118.023 98.7346 118.364 98.5263 118.784C98.3179 119.205 98.2138 119.655 98.2138 120.136V120.909C98.2138 121.568 98.3274 122.127 98.5547 122.585C98.7857 123.04 99.1058 123.386 99.5149 123.625C99.924 123.86 100.399 123.977 100.941 123.977C101.293 123.977 101.612 123.928 101.896 123.83C102.183 123.727 102.432 123.576 102.64 123.375C102.848 123.17 103.009 122.917 103.123 122.614L104.418 122.977C104.282 123.417 104.053 123.803 103.731 124.136C103.409 124.466 103.011 124.723 102.538 124.909C102.064 125.091 101.532 125.182 100.941 125.182ZM113.465 116.273L110.238 125H108.874L105.647 116.273H107.102L109.511 123.227H109.602L112.011 116.273H113.465ZM118.582 125.182C117.741 125.182 117.015 124.996 116.406 124.625C115.799 124.25 115.332 123.727 115.002 123.057C114.676 122.383 114.513 121.598 114.513 120.705C114.513 119.811 114.676 119.023 115.002 118.341C115.332 117.655 115.79 117.121 116.377 116.739C116.968 116.352 117.657 116.159 118.445 116.159C118.9 116.159 119.349 116.235 119.792 116.386C120.235 116.538 120.638 116.784 121.002 117.125C121.366 117.462 121.656 117.909 121.871 118.466C122.087 119.023 122.195 119.708 122.195 120.523V121.091H115.468V119.932H120.832C120.832 119.439 120.733 119 120.536 118.614C120.343 118.227 120.067 117.922 119.707 117.699C119.351 117.475 118.93 117.364 118.445 117.364C117.911 117.364 117.449 117.496 117.059 117.761C116.673 118.023 116.375 118.364 116.167 118.784C115.959 119.205 115.854 119.655 115.854 120.136V120.909C115.854 121.568 115.968 122.127 116.195 122.585C116.426 123.04 116.746 123.386 117.156 123.625C117.565 123.86 118.04 123.977 118.582 123.977C118.934 123.977 119.252 123.928 119.536 123.83C119.824 123.727 120.072 123.576 120.281 123.375C120.489 123.17 120.65 122.917 120.763 122.614L122.059 122.977C121.923 123.417 121.693 123.803 121.371 124.136C121.049 124.466 120.652 124.723 120.178 124.909C119.705 125.091 119.173 125.182 118.582 125.182ZM127.531 125.182C126.803 125.182 126.161 124.998 125.604 124.631C125.048 124.259 124.612 123.737 124.298 123.062C123.983 122.384 123.826 121.583 123.826 120.659C123.826 119.742 123.983 118.947 124.298 118.273C124.612 117.598 125.049 117.078 125.61 116.71C126.171 116.343 126.818 116.159 127.553 116.159C128.121 116.159 128.57 116.254 128.9 116.443C129.233 116.629 129.487 116.841 129.661 117.08C129.839 117.314 129.978 117.508 130.076 117.659H130.19V113.364H131.531V125H130.235V123.659H130.076C129.978 123.818 129.837 124.019 129.656 124.261C129.474 124.5 129.214 124.714 128.877 124.903C128.54 125.089 128.091 125.182 127.531 125.182ZM127.712 123.977C128.25 123.977 128.705 123.837 129.076 123.557C129.447 123.273 129.729 122.881 129.923 122.381C130.116 121.877 130.212 121.295 130.212 120.636C130.212 119.985 130.118 119.415 129.928 118.926C129.739 118.434 129.459 118.051 129.087 117.778C128.716 117.502 128.258 117.364 127.712 117.364C127.144 117.364 126.671 117.509 126.292 117.801C125.917 118.089 125.635 118.481 125.445 118.977C125.26 119.47 125.167 120.023 125.167 120.636C125.167 121.258 125.262 121.822 125.451 122.33C125.644 122.833 125.928 123.235 126.303 123.534C126.682 123.83 127.152 123.977 127.712 123.977Z" fill="white"/>
<defs>
<linearGradient id="paint0_linear_201_102" x1="1.97421e-07" y1="82" x2="154" y2="178" gradientUnits="userSpaceOnUse">
<stop stop-color="#DF9780"/>
<stop offset="1" stop-color="#A66DE9"/>
</linearGradient>
</defs>
</svg>
